# xmcd
#
# Track frame offsets:
#       150
#       900
#       1650
#       2400
#       3150
#       3900
#       4650
#       5400
#       6150
#       6900
#       7650
#       8400
#       261368
#
# Disc length: 3827 seconds
#
# Revision: 1
# Processed by: cddbd v1.4PL0 Copyright (c) Steve Scherf et al.
# Submitted via: MusiCat 1.1
#
DISCID=5b0ef10d
DTITLE=Van Morrison - What's Wrong With This Picture
DYEAR=2003
DGENRE=
TTITLE0=What's Wrong With This Picture
TTITLE1=Whinin Boy Moan
TTITLE2=Evening In June
TTITLE3=Too Many Myths
TTITLE4=Somerset
TTITLE5=Meaning Of Loneliness
TTITLE6=Stop Drinking
TTITLE7=Goldfish Bowl
TTITLE8=Once In A Blue Moon
TTITLE9=St. James Infirmary
TTITLE10=Little Village
TTITLE11=Fame
TTITLE12=Get On With The Show
EXTD=Blue Note\n\n
EXTT0=
EXTT1=
EXTT2=
EXTT3=
EXTT4=
EXTT5=
EXTT6=
EXTT7=
EXTT8=\n
EXTT9=
EXTT10=
EXTT11=
EXTT12=
PLAYORDER=
